<?xml version="1.0" encoding="UTF-8" standalone="no"?>
<!-- Created with Inkscape (http://www.inkscape.org/) -->

<svg
   width="499.61441mm"
   height="179.56602mm"
   viewBox="0 0 499.61441 179.56602"
   version="1.1"
   id="svg1"
   xmlns:inkscape="http://www.inkscape.org/namespaces/inkscape"
   xmlns:sodipodi="http://sodipodi.sourceforge.net/DTD/sodipodi-0.dtd"
   xmlns="http://www.w3.org/2000/svg"
   xmlns:svg="http://www.w3.org/2000/svg">
  <sodipodi:namedview
     id="namedview1"
     pagecolor="#ffffff"
     bordercolor="#999999"
     borderopacity="1"
     inkscape:showpageshadow="2"
     inkscape:pageopacity="0"
     inkscape:pagecheckerboard="0"
     inkscape:deskcolor="#d1d1d1"
     inkscape:document-units="mm" />
  <defs
     id="defs1" />
  <g
     inkscape:label="Layer 1"
     inkscape:groupmode="layer"
     id="layer1"
     transform="translate(219.86875,-89.958332)">
    <g
       id="g13"
       style="fill:#172a49;fill-opacity:1"
       transform="matrix(0.26458333,0,0,0.26458333,-223.93155,36.740637)">
      <path
         style="opacity:1;fill:#172a49;fill-opacity:1;stroke-width:5;stroke-linecap:round;stroke-linejoin:round;paint-order:stroke fill markers"
         d="M 15.355469,202.06445 H 107.52344 V 447.875 l 81.80753,-0.0389 c 37.04835,-0.0176 56.43075,22.1331 56.43075,49.4307 v 27.3768 H 15.355469 Z"
         id="path6"
         sodipodi:nodetypes="cccssccc" />
      <path
         id="path7"
         style="display:inline;fill:#172a49;fill-opacity:1;stroke-width:5.35526;stroke-linecap:round;stroke-linejoin:round;paint-order:stroke fill markers"
         d="m 402.20898,202.06445 c -115.87692,1e-5 -171.78905,72.21136 -171.78906,161.28907 -1e-5,108.07769 76.91211,161.29101 171.78906,161.29101 C 497.08594,524.64454 574.00001,461.43122 574,363.35352 573.99999,274.2758 514.08591,202.06444 402.20898,202.06445 Z m 0,71.55664 c 56.04779,-10e-6 68.14844,54.39614 68.14844,89.73243 0,38.90651 -17.78372,86.60938 -68.14844,86.60937 -53.19312,-1e-5 -68.14648,-43.73597 -68.14648,-86.60937 0,-34.08629 11.57261,-89.73241 68.14648,-89.73243 z" />
      <path
         style="fill:#172a49;fill-opacity:1;stroke-width:5;stroke-linecap:round;stroke-linejoin:round;paint-order:stroke fill markers"
         d="M 686.37831,524.64369 555.88916,202.06445 h 112.34792 l 66.94369,197.94856 69.33514,-197.94856 H 908.09245 L 777.32929,524.64369 Z"
         id="path11" />
      <path
         id="path12"
         style="display:inline;opacity:1;fill:#172a49;fill-opacity:1;stroke-width:5.28465;stroke-linecap:round;stroke-linejoin:round;paint-order:stroke fill markers"
         d="m 1059.3184,202.06445 c -112.84141,1e-5 -167.28909,72.21152 -167.2891,161.28907 -1e-5,108.07747 66.14756,161.29101 167.2891,161.29101 88.6526,0 119.3668,-33.87849 152.0742,-90.5293 l -48.3242,-19.18554 c -10.8688,-4.31531 -23.7201,0.99963 -31.5489,9.63281 -12.9661,14.29831 -33.2491,26.15039 -60.1836,26.15039 -39.6403,0 -70.8798,-35.82779 -76.89449,-74.16016 l 148.58009,0.52344 h 72.0625 c 5.6944,-78.67955 -30.7963,-175.01173 -155.7656,-175.01172 z m 0,58.1211 c 51.4355,-3e-5 54.7643,37.75353 51.5351,44.5 -13.3528,27.89634 -49.621,13.16582 -86.1035,34.56445 -10.4426,6.12508 -22.3772,16.02809 -31.43945,24.10938 v -0.006 c 0,-63.78465 10.91595,-103.16796 66.00785,-103.16797 z"
         sodipodi:nodetypes="sssccsscccsssscsss" />
      <path
         id="path16"
         style="display:inline;opacity:1;fill:#172a49;fill-opacity:1;stroke-width:5.28465;stroke-linecap:round;stroke-linejoin:round;paint-order:stroke fill markers"
         d="m 1059.3184,202.06445 c -112.84141,1e-5 -167.28909,72.21152 -167.2891,161.28907 -1e-5,108.07747 66.14756,161.29101 167.2891,161.29101 88.6526,0 119.3668,-33.87849 152.0742,-90.5293 l -48.3242,-19.18554 c -10.8688,-4.31531 -23.7201,0.99963 -31.5489,9.63281 -12.9661,14.29831 -33.2491,26.15039 -60.1836,26.15039 -39.6403,0 -70.8798,-35.82779 -76.89449,-74.16016 l 148.58009,0.52344 h 72.0625 c 5.6944,-78.67955 -30.7963,-175.01173 -155.7656,-175.01172 z m 0,58.1211 c 51.4355,-3e-5 54.7643,37.75353 51.5351,44.5 -13.3528,27.89634 -49.621,13.16582 -86.1035,34.56445 -10.4426,6.12508 -22.3772,16.02809 -31.43945,24.10938 v -0.006 c 0,-63.78465 10.91595,-103.16796 66.00785,-103.16797 z"
         sodipodi:nodetypes="sssccsscccsssscsss" />
    </g>
    <g
       id="g24"
       style="display:inline;fill:#172d4b;fill-opacity:0.133333"
       transform="matrix(0.26458333,0,0,0.26458333,-223.93155,36.740637)">
      <path
         style="fill:#172d4b;fill-opacity:1;stroke-width:5;stroke-linecap:round;stroke-linejoin:round;paint-order:stroke fill markers"
         d="M 15.355469,555.35938 H 93.830118 L 232.31641,727.1529 V 555.35938 h 92.16406 v 322.5664 H 259.28125 L 109.44141,700.81419 V 877.92578 H 15.355469 Z"
         id="path15" />
      <path
         id="path20"
         style="opacity:1;fill:#172d4b;fill-opacity:1;stroke-width:5;stroke-linecap:round;stroke-linejoin:round;paint-order:stroke fill markers"
         d="m 524.1875,555.35938 c -46.43603,0 -89.13354,5.32861 -147.68945,27.37695 l 16.08203,37.96094 c 5.07,11.96733 19.43641,19.24485 32.18359,16.71289 26.44075,-5.25191 68.57867,-12.15081 87.18945,-7.16407 37.16795,9.95921 37.17579,48.57618 37.17579,48.57618 0,0 -90.61616,-11.23734 -127.73829,9.87695 -35.24292,20.04544 -70.04687,38.65573 -70.04687,99.4414 0,48.81338 50.72463,91.67188 104.40625,91.67188 61.24419,0 93.37891,-46.3125 93.37891,-46.3125 v 44.42578 H 652.80273 V 663.11523 c 0,-59.51229 -38.34383,-107.75585 -128.61523,-107.75585 z M 549.12891,721.75 V 802 c 0,0 -22.87014,9.74616 -43.12891,10 -18.66165,0.23383 -49.36316,-4.68029 -50.71875,-29.94531 -2.30186,-42.90114 32.2385,-43.30118 55.09375,-46.67969 25.09326,-3.70934 38.75391,-13.625 38.75391,-13.625 z" />
      <path
         style="opacity:1;fill:#172d4b;fill-opacity:1;stroke-width:5;stroke-linecap:round;stroke-linejoin:round;paint-order:stroke fill markers"
         d="m 673.92188,555.35938 v 76.80078 h 88.31713 v 245.76562 h 101.7649 V 632.16016 h 143.18129 c 19.1106,0 35.3812,17.8789 35.3812,17.8789 v -53.57259 c 0,-23.58671 -9.5238,-41.1071 -65.1071,-41.10709 z"
         id="path21"
         sodipodi:nodetypes="ccccccscccc" />
      <path
         style="opacity:1;fill:#172d4b;fill-opacity:1;stroke-width:5;stroke-linecap:round;stroke-linejoin:round;paint-order:stroke fill markers"
         d="m 942.72656,660.96806 v 88.18819 c 0,107.44365 76.64554,128.76954 158.69144,128.76953 122.1174,-2e-5 154.2695,-57.65209 154.2695,-128.76953 V 555.35938 h -101.7656 v 196.00507 c 0,36.43778 -22.908,55.62321 -55.6356,55.63555 -24.2469,0.009 -53.7975,-18.75421 -53.7975,-55.29716 0,-34.71627 -1.9221,-60.2508 -1.9221,-60.2508 -0.5368,-16.82728 -13.6482,-30.48399 -30.484,-30.48398 z"
         id="path22"
         sodipodi:nodetypes="ccsccccssssc" />
      <path
         id="path23"
         style="display:inline;opacity:1;fill:#172d4b;fill-opacity:1;stroke-width:5;stroke-linecap:round;stroke-linejoin:round;paint-order:stroke fill markers"
         d="m 1288.3242,555.35938 v 322.5664 h 97.9258 l 0.623,-133.83203 c 0,0 20.7112,-7.658 31.2618,9.66602 l 75.6172,124.16601 h 112.5918 l -91.2637,-148.33789 c 0,0 62.5139,-37.33233 44.8613,-103.21289 -19.0594,-71.13069 -97.2422,-71.01562 -97.2422,-71.01562 z M 1386.25,626.375 h 52.4238 c 0,0 25.6346,4.54491 26.9043,22.75586 1.9885,28.52062 -10.2661,27.322 -46.9746,48.70898 -13.8453,8.0665 -28.5293,37.99805 -28.5293,37.99805 h -3.8242 z" />
      <path
         id="path24"
         style="display:inline;opacity:1;fill:#172d4b;fill-opacity:1;stroke-width:5.28465;stroke-linecap:round;stroke-linejoin:round;paint-order:stroke fill markers"
         d="m 1747.3333,555.3457 c -112.8414,1e-5 -167.2891,72.21152 -167.2891,161.28907 0,108.07747 66.1476,161.29101 167.2891,161.29101 88.6526,0 119.3668,-33.87849 152.0742,-90.5293 l -48.3242,-19.18554 c -10.8688,-4.31531 -23.7201,0.99963 -31.5489,9.63281 -12.9661,14.29831 -33.2491,26.15039 -60.1836,26.15039 -39.6403,0 -70.8798,-35.82779 -76.8945,-74.16016 l 148.5801,0.52344 h 72.0625 c 5.6944,-78.67955 -30.7963,-175.01173 -155.7656,-175.01172 z m 0,58.1211 c 51.4355,-3e-5 54.7643,37.75353 51.5351,44.5 -13.3528,27.89634 -49.621,13.16582 -86.1035,34.56445 -10.4426,6.12508 -22.3772,16.02809 -31.4394,24.10938 v -0.006 c 0,-63.78465 10.9159,-103.16796 66.0078,-103.16797 z"
         sodipodi:nodetypes="sssccsscccsssscsss" />
    </g>
    <path
       style="fill:#ff6c5a;fill-opacity:1;stroke-width:1.32292;stroke-linecap:round;stroke-linejoin:round;paint-order:stroke fill markers"
       d="m 194.82557,176.34535 -36.85945,-37.17942 c 0,0 11.06274,1.84405 20.10641,-7.19963 9.35894,-9.35896 23.78376,-23.91687 34.90338,-35.15668 8.88053,-8.976508 23.30997,-9.022948 32.23863,-0.09428 a 21.703166,21.703166 0 0 1 -1.7572,30.57607 z"
       id="path26"
       sodipodi:nodetypes="ccsccc" />
    <path
       style="fill:#ff6c5a;fill-opacity:1;stroke-width:1.32292;stroke-linecap:round;stroke-linejoin:round;paint-order:stroke fill markers"
       d="M 189.76359,111.68307 173.86594,96.325737 c -8.89574,-8.593386 -23.03663,-8.473792 -31.78574,0.268824 -7.9216,8.706759 -7.31208,22.179739 1.36331,30.135659 8.6786,8.51636 19.90143,11.14938 31.17239,-0.20349 z"
       id="path27"
       sodipodi:nodetypes="cccccc" />
  </g>
</svg>
